<svg xmlns="http://www.w3.org/2000/svg" width="180" height="60" viewBox="0 0 180 60" fill="none"><g clip-path="url(#clip0_84_191)"><path d="M142.057 0.0163574C142.79 0.0163574 143.42 0.28549 143.951 0.818262C144.482 1.35103 144.751 1.98267 144.751 2.71866V32.1639H142.057C141.328 32.1639 140.693 31.9003 140.162 31.362C139.631 30.8292 139.362 30.1921 139.362 29.4616V0.0163574H142.057Z" fill="white"></path><path d="M76.3892 32.208H65.3388C63.5865 32.197 61.9273 31.0271 61.1333 29.4562L59.7698 26.7484H67.4854L57.1961 6.37678L46.9068 26.743H54.6224L53.1439 29.6045C52.3554 31.1754 50.7509 32.197 48.9986 32.2025H38.1125L53.3903 2.24643C53.7243 1.54339 54.2227 0.994141 54.8743 0.593189C55.4438 0.247162 56.0571 0.0604174 56.7087 0.0164775V0H57.6725V0.0164775C58.3241 0.0604174 58.9374 0.247162 59.5069 0.593189C60.164 0.994141 60.6569 1.54339 60.9909 2.24643L76.3837 32.208H76.3892ZM24.3788 0.823874C23.8477 1.35665 23.5794 1.98828 23.5794 2.72428V24.0846L5.7552 0.0659099L5.71139 0.02197H0V32.208H2.69416C3.42793 32.208 4.05766 31.9498 4.58883 31.428C5.11999 30.9063 5.38831 30.2691 5.38831 29.5002V7.86525L23.322 32.208H28.9731V0.02197H26.279C25.5507 0.02197 24.9155 0.291102 24.3843 0.823874H24.3788ZM121.396 0C120.936 0 120.503 0.0768949 120.093 0.230685C119.682 0.384475 119.31 0.615159 118.976 0.917246C118.641 1.22483 118.379 1.57635 118.198 1.97181L102.893 32.208H108.878L125.048 0.230685L125.141 0H121.396ZM82.8015 1.97181C82.4949 1.36214 82.0513 0.878799 81.4763 0.527279C80.8959 0.17576 80.2716 0 79.6036 0H75.8088L88.4034 24.6064L90.55 20.3442C91.0976 19.2732 91.0976 18.1911 90.55 17.0926L82.8015 1.97181ZM113.056 0H109.311C108.851 0 108.418 0.0768949 108.007 0.230685C107.597 0.384475 107.224 0.615159 106.89 0.917246C106.556 1.22483 106.293 1.57635 106.113 1.97181L90.8073 32.208H96.7925L112.968 0.230685L113.062 0H113.056Z" fill="url(#paint0_linear_84_191)"></path><path d="M179.118 2.72428C179.118 1.98829 178.849 1.35665 178.318 0.823877C177.787 0.291105 177.152 0.0219727 176.424 0.0219727H150.15V2.58697C150.15 3.31747 150.418 3.9546 150.95 4.48737C151.481 5.02014 152.116 5.28927 152.844 5.28927H161.94V29.4617C161.94 30.1922 162.203 30.8294 162.739 31.3621C163.27 31.9004 163.9 32.164 164.634 32.164H167.328V5.36068C167.328 5.36068 167.317 5.31674 167.317 5.28927H179.112V2.72428H179.118Z" fill="white"></path><path d="M17.9172 51.2339C18.4155 50.3496 19.0945 49.6631 19.9488 49.1632C20.8085 48.6634 21.7613 48.4163 22.8072 48.4163C24.0393 48.4163 25.1126 48.7129 26.0325 49.3115C26.9525 49.9047 27.6206 50.7506 28.0422 51.8436H26.279C25.9668 51.1625 25.5123 50.6352 24.9264 50.2672C24.3405 49.8992 23.6341 49.7125 22.8127 49.7125C21.9913 49.7125 21.3178 49.8992 20.688 50.2672C20.0638 50.6352 19.5709 51.157 19.215 51.8326C18.8591 52.5082 18.6784 53.3046 18.6784 54.2108C18.6784 55.1171 18.8536 55.897 19.215 56.5726C19.5709 57.2482 20.0638 57.77 20.688 58.138C21.3123 58.506 22.0242 58.6927 22.8127 58.6927C23.6012 58.6927 24.335 58.5115 24.9264 58.149C25.5123 57.7865 25.9668 57.2647 26.279 56.5836H28.0422C27.6206 57.6656 26.9525 58.506 26.0325 59.0937C25.1126 59.6869 24.0393 59.978 22.8072 59.978C21.7613 59.978 20.8085 59.7308 19.9488 59.242C19.0891 58.7476 18.4155 58.0611 17.9172 57.1878C17.4189 56.309 17.1725 55.3203 17.1725 54.2163C17.1725 53.1123 17.4189 52.1182 17.9172 51.2339Z" fill="white"></path><path d="M37.4991 59.2639C36.6339 58.7696 35.9494 58.0831 35.4511 57.1988C34.9473 56.3145 34.6954 55.3258 34.6954 54.2163C34.6954 53.1069 34.9473 52.1182 35.4511 51.2339C35.9549 50.3496 36.6394 49.6631 37.4991 49.1687C38.3643 48.6744 39.3171 48.4272 40.363 48.4272C41.4089 48.4272 42.3836 48.6744 43.2488 49.1687C44.114 49.6631 44.793 50.3441 45.2914 51.2229C45.7897 52.1017 46.0361 53.0959 46.0361 54.2108C46.0361 55.3258 45.7897 56.32 45.2914 57.1988C44.793 58.0776 44.114 58.7641 43.2488 59.253C42.3836 59.7473 41.4254 59.9944 40.363 59.9944C39.3007 59.9944 38.3588 59.7473 37.4991 59.253V59.2639ZM42.4986 58.1654C43.1284 57.7974 43.6267 57.2702 43.9881 56.5891C44.3495 55.908 44.5302 55.1171 44.5302 54.2163C44.5302 53.3156 44.3495 52.5137 43.9881 51.8381C43.6267 51.1625 43.1338 50.6407 42.5041 50.2727C41.8799 49.9047 41.1625 49.718 40.363 49.718C39.5635 49.718 38.8517 49.9047 38.2274 50.2727C37.6032 50.6407 37.1048 51.1625 36.7434 51.8381C36.382 52.5137 36.2013 53.3101 36.2013 54.2163C36.2013 55.1226 36.382 55.908 36.7434 56.5891C37.1048 57.2702 37.6032 57.7974 38.2329 58.1654C38.8626 58.5334 39.5745 58.7202 40.363 58.7202C41.1516 58.7202 41.8634 58.5334 42.4932 58.1654H42.4986Z" fill="white"></path><path d="M61.8725 59.8901H60.3994L54.469 50.8714V59.8901H52.996V48.5481H54.469L60.3994 57.5503V48.5481H61.8725V59.8901Z" fill="white"></path><path d="M70.9845 59.6046C70.3986 59.3409 69.9331 58.9675 69.5991 58.5006C69.2651 58.0282 69.0898 57.4845 69.0844 56.8693H70.6559C70.7107 57.4021 70.9297 57.847 71.313 58.2095C71.6964 58.572 72.2549 58.7533 72.9887 58.7533C73.7225 58.7533 74.2427 58.5775 74.6479 58.226C75.0531 57.8745 75.2557 57.4241 75.2557 56.8693C75.2557 56.4354 75.1353 56.0839 74.8998 55.8148C74.6643 55.5456 74.3631 55.3369 74.0072 55.1996C73.6513 55.0568 73.1694 54.9085 72.567 54.7437C71.8223 54.546 71.2254 54.3538 70.7764 54.156C70.3274 53.9583 69.9441 53.6562 69.6265 53.2388C69.3089 52.8214 69.1501 52.2611 69.1501 51.5581C69.1501 50.9429 69.3089 50.3937 69.621 49.9158C69.9331 49.438 70.3767 49.07 70.9407 48.8118C71.5102 48.5537 72.1563 48.4219 72.8901 48.4219C73.947 48.4219 74.8176 48.6855 75.4912 49.2183C76.1647 49.7511 76.548 50.4541 76.6357 51.3329H75.0148C74.96 50.899 74.7355 50.52 74.3303 50.185C73.9305 49.8554 73.3994 49.6906 72.7423 49.6906C72.129 49.6906 71.6252 49.8499 71.2364 50.1685C70.8476 50.487 70.6505 50.9374 70.6505 51.5087C70.6505 51.9206 70.7655 52.2556 71.0009 52.5138C71.2309 52.7719 71.5211 52.9697 71.8606 53.107C72.2002 53.2443 72.6766 53.3981 73.2953 53.5683C74.0401 53.7716 74.6424 53.9748 75.0914 54.178C75.5459 54.3757 75.9347 54.6888 76.2578 55.1007C76.5809 55.5182 76.7452 56.0839 76.7452 56.7979C76.7452 57.3527 76.5973 57.869 76.3071 58.3578C76.0169 58.8466 75.5843 59.2421 75.0093 59.5442C74.4343 59.8463 73.7608 60 72.9832 60C72.2056 60 71.5704 59.8682 70.9845 59.5991V59.6046Z" fill="white"></path><path d="M85.3751 48.5645V55.7322C85.3751 56.7373 85.6215 57.4843 86.1144 57.9731C86.6072 58.4619 87.2862 58.7036 88.1624 58.7036C89.0385 58.7036 89.7066 58.4619 90.1939 57.9731C90.6868 57.4843 90.9332 56.7373 90.9332 55.7322V48.5645H92.4062V55.7102C92.4062 56.6549 92.2146 57.4458 91.8422 58.0884C91.4644 58.7366 90.9551 59.2144 90.3089 59.5275C89.6683 59.8405 88.9454 59.9998 88.1459 59.9998C87.3465 59.9998 86.6236 59.8405 85.983 59.5275C85.3423 59.2144 84.833 58.7366 84.4606 58.0884C84.0883 57.4458 83.9021 56.6494 83.9021 55.7102V48.5645H85.3751Z" fill="white"></path><path d="M101.359 58.6871H105.313V59.89H99.8864V48.5645H101.359V58.6871Z" fill="white"></path><path d="M118.849 48.5645V49.7673H115.772V59.89H114.299V49.7673H111.205V48.5645H118.849Z" fill="white"></path><path d="M127.162 48.5645V59.89H125.689V48.5645H127.162Z" fill="white"></path><path d="M143.568 59.8901H142.095L136.164 50.8714V59.8901H134.691V48.5481H136.164L142.095 57.5503V48.5481H143.568V59.8901Z" fill="white"></path><path d="M159.651 51.8435C159.339 51.1844 158.884 50.6736 158.293 50.311C157.701 49.9485 157.006 49.7673 156.218 49.7673C155.429 49.7673 154.717 49.9485 154.087 50.311C153.452 50.6736 152.959 51.1953 152.598 51.8709C152.237 52.5465 152.056 53.3319 152.056 54.2162C152.056 55.1005 152.237 55.8859 152.598 56.556C152.959 57.2261 153.458 57.7424 154.087 58.1104C154.717 58.4729 155.429 58.6541 156.218 58.6541C157.318 58.6541 158.227 58.3246 158.939 57.66C159.651 57.0009 160.067 56.1056 160.188 54.9797H155.686V53.7768H161.759V54.9138C161.672 55.8475 161.381 56.6988 160.883 57.4733C160.385 58.2477 159.733 58.8574 158.923 59.3078C158.112 59.7581 157.209 59.9833 156.218 59.9833C155.172 59.9833 154.213 59.7362 153.354 59.2473C152.488 58.753 151.804 58.0664 151.306 57.1931C150.802 56.3143 150.55 55.3257 150.55 54.2217C150.55 53.1177 150.802 52.1236 151.306 51.2393C151.809 50.355 152.494 49.6684 153.354 49.1741C154.219 48.6798 155.172 48.4326 156.218 48.4326C157.417 48.4326 158.479 48.7292 159.399 49.3279C160.324 49.9266 160.993 50.7614 161.414 51.8435H159.651Z" fill="white"></path></g><defs><linearGradient id="paint0_linear_84_191" x1="0" y1="16.104" x2="125.141" y2="16.104" gradientUnits="userSpaceOnUse"><stop stop-color="#3E84C5"></stop><stop offset="1" stop-color="#16BAE7"></stop></linearGradient><clipPath id="clip0_84_191"><rect width="179.118" height="60" fill="white"></rect></clipPath></defs></svg>