<svg width="264" height="147" viewBox="0 0 264 147" fill="none" xmlns="http://www.w3.org/2000/svg">
<path d="M84.7159 1.36597V49.2287H74.0914L54.1048 18.9332V49.2287H49.4412V1.36597H58.2424L80.0523 34.0809V1.36597H84.7159Z" fill="black"/>
<path d="M22.6521 0.524414C36.5843 0.524414 43.5504 8.7762 43.5504 25.2798C43.5504 41.7834 36.4558 50.0352 22.2664 50.0352C8.07709 50.0352 0.982422 41.5964 0.982422 24.7188C0.982422 8.5892 8.20566 0.524414 22.6521 0.524414ZM22.2664 4.34642C19.6483 4.34642 17.8717 5.79574 16.9367 8.69439C16.025 11.5697 15.5692 17.0981 15.5692 25.2798C15.5692 33.4614 16.025 39.0016 16.9367 41.9002C17.8717 44.7755 19.6483 46.2132 22.2664 46.2132C24.8846 46.2132 26.6495 44.7755 27.5611 41.9002C28.4962 39.0016 28.9637 33.4614 28.9637 25.2798C28.9637 17.1215 28.4962 11.593 27.5611 8.69439C26.6495 5.79574 24.8846 4.34642 22.2664 4.34642Z" fill="black"/>
<path d="M220.549 41.6457H244.155V49H211.76V1H242.863V8.35426H220.549V20.7668H239.706V28.1211H220.549V41.6457Z" fill="#C0C0C0"/>
<path d="M183.312 23.3139C186.756 28.2167 189.554 32.5695 191.706 36.3722H191.922C191.635 30.13 191.491 25.5859 191.491 22.7399V1H200.28V49H191.061L175.419 26.9013C172.669 23.0747 169.823 18.6383 166.881 13.5919H166.666C166.953 19.4753 167.097 24.0314 167.097 27.2601V49H158.307V1H167.527L183.312 23.3139Z" fill="#C0C0C0"/>
<path d="M138.002 49V1H146.792V49H138.002Z" fill="#C0C0C0"/>
<path d="M107.258 1V41.6457H129.715V49H98.4688V1H107.258Z" fill="#C0C0C0"/>
<path d="M194.857 94.0217H177.153L172.552 106H163.384L182.036 59H189.904L208.557 106H199.459L194.857 94.0217ZM185.935 70.3109C184.296 75.2287 182.832 79.3386 181.544 82.6405L179.928 86.8206H192.082L190.467 82.6405C189.179 79.3151 187.715 75.2053 186.076 70.3109H185.935Z" fill="#C0C0C0"/>
<path d="M148.068 106V59H156.674V106H148.068Z" fill="#C0C0C0"/>
<path d="M98.4688 106V59H110.904C112.004 59 113.117 59.0351 114.241 59.1054C115.388 59.1756 116.501 59.281 117.578 59.4215C118.655 59.562 119.697 59.7377 120.704 59.9484C121.711 60.1358 122.636 60.37 123.479 60.651C125.985 61.4472 128.198 62.5244 130.118 63.8827C132.039 65.2409 133.643 66.845 134.931 68.6951C136.242 70.5451 137.226 72.6176 137.881 74.9126C138.56 77.1841 138.9 79.6547 138.9 82.3244C138.9 84.8535 138.619 87.2304 138.057 89.4552C137.495 91.6565 136.64 93.6704 135.493 95.497C134.345 97.3236 132.893 98.9395 131.137 100.345C129.404 101.726 127.343 102.862 124.955 103.752C122.964 104.501 120.704 105.063 118.175 105.438C115.646 105.813 112.801 106 109.639 106H98.4688ZM110.623 98.799C115.658 98.799 119.592 98.1081 122.425 96.7265C124.931 95.4853 126.828 93.6821 128.116 91.3169C129.404 88.9517 130.048 85.9307 130.048 82.2541C130.048 80.3338 129.837 78.6009 129.416 77.0553C128.994 75.5097 128.385 74.1398 127.589 72.9454C126.793 71.7277 125.821 70.6856 124.674 69.8191C123.549 68.9527 122.273 68.2384 120.845 67.6764C119.51 67.1612 118.023 66.7865 116.384 66.5523C114.744 66.3181 112.906 66.201 110.869 66.201H107.075V98.799H110.623Z" fill="#C0C0C0"/>
<path d="M253.628 130.187C255.733 133.184 257.444 135.845 258.759 138.169H258.891C258.715 134.353 258.628 131.576 258.628 129.836V116.548H264V145.887H258.365L248.804 132.38C247.123 130.041 245.384 127.329 243.585 124.245H243.454C243.629 127.841 243.717 130.626 243.717 132.599V145.887H238.345V116.548H243.98L253.628 130.187Z" fill="#C0C0C0"/>
<path d="M227.096 131.218C227.096 129.434 226.877 127.877 226.438 126.547C226 125.202 225.393 124.084 224.618 123.192C223.843 122.301 222.922 121.635 221.855 121.197C220.788 120.758 219.619 120.539 218.347 120.539C217.075 120.539 215.906 120.758 214.838 121.197C213.771 121.635 212.85 122.301 212.076 123.192C211.301 124.084 210.694 125.202 210.256 126.547C209.817 127.877 209.598 129.434 209.598 131.218C209.598 133.001 209.817 134.565 210.256 135.91C210.694 137.24 211.301 138.351 212.076 139.243C212.85 140.12 213.771 140.785 214.838 141.239C215.906 141.677 217.075 141.896 218.347 141.896C219.619 141.896 220.788 141.677 221.855 141.239C222.922 140.785 223.843 140.12 224.618 139.243C225.393 138.351 226 137.24 226.438 135.91C226.877 134.565 227.096 133.001 227.096 131.218ZM232.644 131.218C232.644 133.454 232.322 135.508 231.679 137.379C231.05 139.236 230.122 140.837 228.894 142.181C227.681 143.526 226.182 144.572 224.399 145.317C222.63 146.063 220.613 146.435 218.347 146.435C216.081 146.435 214.056 146.063 212.273 145.317C210.504 144.572 209.006 143.526 207.778 142.181C206.564 140.837 205.636 139.236 204.993 137.379C204.364 135.508 204.05 133.454 204.05 131.218C204.05 128.981 204.364 126.935 204.993 125.078C205.636 123.207 206.564 121.599 207.778 120.254C209.006 118.909 210.504 117.864 212.273 117.118C214.056 116.373 216.081 116 218.347 116C220.613 116 222.63 116.373 224.399 117.118C226.182 117.864 227.681 118.909 228.894 120.254C230.122 121.599 231.05 123.207 231.679 125.078C232.322 126.935 232.644 128.981 232.644 131.218Z" fill="#C0C0C0"/>
<path d="M192.955 145.887V116.548H198.327V145.887H192.955Z" fill="#C0C0C0"/>
<path d="M179.338 145.887H173.966V121.043H164.493V116.548H188.789V121.043H179.338V145.887Z" fill="#C0C0C0"/>
<path d="M157.191 131.218C157.191 129.434 156.972 127.877 156.533 126.547C156.095 125.202 155.488 124.084 154.713 123.192C153.938 122.301 153.017 121.635 151.95 121.197C150.883 120.758 149.714 120.539 148.442 120.539C147.17 120.539 146.001 120.758 144.933 121.197C143.866 121.635 142.945 122.301 142.171 123.192C141.396 124.084 140.789 125.202 140.351 126.547C139.912 127.877 139.693 129.434 139.693 131.218C139.693 133.001 139.912 134.565 140.351 135.91C140.789 137.24 141.396 138.351 142.171 139.243C142.945 140.12 143.866 140.785 144.933 141.239C146.001 141.677 147.17 141.896 148.442 141.896C149.714 141.896 150.883 141.677 151.95 141.239C153.017 140.785 153.938 140.12 154.713 139.243C155.488 138.351 156.095 137.24 156.533 135.91C156.972 134.565 157.191 133.001 157.191 131.218ZM162.739 131.218C162.739 133.454 162.417 135.508 161.774 137.379C161.145 139.236 160.217 140.837 158.989 142.181C157.776 143.526 156.277 144.572 154.494 145.317C152.725 146.063 150.708 146.435 148.442 146.435C146.176 146.435 144.151 146.063 142.368 145.317C140.599 144.572 139.101 143.526 137.873 142.181C136.659 140.837 135.731 139.236 135.088 137.379C134.459 135.508 134.145 133.454 134.145 131.218C134.145 128.981 134.459 126.935 135.088 125.078C135.731 123.207 136.659 121.599 137.873 120.254C139.101 118.909 140.599 117.864 142.368 117.118C144.151 116.373 146.176 116 148.442 116C150.708 116 152.725 116.373 154.494 117.118C156.277 117.864 157.776 118.909 158.989 120.254C160.217 121.599 161.145 123.207 161.774 125.078C162.417 126.935 162.739 128.981 162.739 131.218Z" fill="#C0C0C0"/>
<path d="M113.446 138.015C114.089 135.706 114.885 133.228 115.836 130.582L120.901 116.548H128.444V145.887H123.072V131.021C123.072 128.842 123.159 126.313 123.335 123.434H123.137C122.889 124.267 122.597 125.202 122.26 126.24C121.924 127.278 121.573 128.301 121.208 129.31L115.134 145.887H111.669L105.595 129.31C105.23 128.301 104.879 127.278 104.543 126.24C104.207 125.202 103.914 124.267 103.666 123.434H103.468C103.644 126.138 103.732 128.66 103.732 130.999V145.887H98.3594V116.548H105.859L110.924 130.516C111.772 132.84 112.568 135.34 113.314 138.015H113.446Z" fill="#C0C0C0"/>
<path d="M84.6543 59.3447V64.0273H67.9404V78.1436H81.9883V82.8262H67.9404V101.317H87.4912V106H54.4053V59.3447H84.6543Z" fill="black"/>
<path d="M46.373 59.3447V106H33.3164V73.5293L24.2246 106H16.6709L7.33984 74.0762V106H2.79395V59.3447H16.5342L24.5322 87.5088L32.4961 59.3447H46.373Z" fill="black"/>
<path d="M72.4574 115.695C75.5148 115.695 78.1363 116.318 80.3221 117.565C82.5212 118.799 84.184 120.562 85.3104 122.855C86.4368 125.135 87 127.817 87 130.901C87 133.181 86.6916 135.253 86.0747 137.116C85.4579 138.98 84.5327 140.596 83.299 141.964C82.0653 143.332 80.55 144.378 78.7532 145.102C76.9563 145.826 74.8979 146.188 72.5781 146.188C70.2717 146.188 68.2066 145.819 66.3829 145.082C64.5592 144.331 63.0373 143.278 61.817 141.924C60.5967 140.569 59.6715 138.94 59.0412 137.036C58.4244 135.132 58.116 133.074 58.116 130.861C58.116 128.595 58.4378 126.516 59.0815 124.626C59.7385 122.735 60.6839 121.126 61.9176 119.798C63.1512 118.471 64.6531 117.458 66.4232 116.761C68.1932 116.05 70.2046 115.695 72.4574 115.695ZM80.9456 130.861C80.9456 128.702 80.597 126.831 79.8997 125.249C79.2024 123.667 78.2034 122.473 76.9027 121.669C75.6154 120.851 74.1336 120.442 72.4574 120.442C71.264 120.442 70.1577 120.67 69.1386 121.126C68.1329 121.568 67.2613 122.219 66.5237 123.077C65.7996 123.935 65.223 125.035 64.7939 126.375C64.3782 127.703 64.1704 129.198 64.1704 130.861C64.1704 132.537 64.3782 134.052 64.7939 135.407C65.223 136.761 65.8197 137.888 66.5841 138.786C67.3618 139.671 68.2468 140.335 69.2391 140.777C70.2449 141.22 71.3444 141.441 72.5379 141.441C74.0666 141.441 75.4679 141.059 76.7418 140.295C78.0291 139.53 79.0482 138.35 79.7991 136.754C80.5635 135.159 80.9456 133.194 80.9456 130.861Z" fill="black"/>
<path d="M37.861 133.074H35.7691V142.547C35.7691 143.794 35.4942 144.713 34.9444 145.303C34.3946 145.893 33.6772 146.188 32.7922 146.188C31.8401 146.188 31.1026 145.88 30.5796 145.263C30.0567 144.646 29.7952 143.741 29.7952 142.547V119.859C29.7952 118.571 30.0835 117.639 30.6601 117.063C31.2367 116.486 32.1686 116.198 33.456 116.198H43.1711C44.5121 116.198 45.6586 116.258 46.6107 116.379C47.5627 116.486 48.4209 116.714 49.1853 117.063C50.1105 117.452 50.9285 118.008 51.6392 118.732C52.3499 119.456 52.8863 120.301 53.2483 121.267C53.6238 122.219 53.8115 123.231 53.8115 124.304C53.8115 126.503 53.188 128.26 51.9409 129.574C50.7072 130.888 48.8299 131.82 46.3089 132.37C47.3683 132.933 48.3807 133.764 49.3462 134.864C50.3117 135.963 51.1699 137.137 51.9208 138.384C52.6851 139.617 53.2752 140.737 53.6909 141.743C54.12 142.735 54.3345 143.419 54.3345 143.794C54.3345 144.183 54.2071 144.572 53.9523 144.961C53.711 145.337 53.3757 145.632 52.9466 145.846C52.5175 146.074 52.0214 146.188 51.4582 146.188C50.7877 146.188 50.2245 146.027 49.7686 145.705C49.3127 145.397 48.9171 145.001 48.5818 144.519C48.26 144.036 47.8175 143.325 47.2543 142.386L44.8607 138.404C44.0025 136.942 43.2315 135.829 42.5476 135.065C41.8771 134.301 41.1932 133.778 40.4959 133.496C39.7986 133.214 38.9203 133.074 37.861 133.074ZM41.2804 120.683H35.7691V128.789H41.1195C42.5543 128.789 43.7611 128.669 44.74 128.427C45.7189 128.172 46.4631 127.75 46.9727 127.16C47.4957 126.557 47.7572 125.732 47.7572 124.686C47.7572 123.868 47.5493 123.151 47.1336 122.534C46.7179 121.903 46.1413 121.434 45.4038 121.126C44.7065 120.831 43.332 120.683 41.2804 120.683Z" fill="black"/>
<path d="M13.8044 134.2H8.3333V142.547C8.3333 143.741 8.0517 144.646 7.4885 145.263C6.9253 145.88 6.2146 146.188 5.35639 146.188C4.45796 146.188 3.73385 145.886 3.18406 145.283C2.63427 144.666 2.35938 143.768 2.35938 142.588V119.859C2.35938 118.544 2.66109 117.606 3.26451 117.043C3.86794 116.479 4.82672 116.198 6.14085 116.198H13.8044C16.0706 116.198 17.8138 116.372 19.0341 116.721C20.2409 117.056 21.2801 117.612 22.1518 118.39C23.0368 119.168 23.7073 120.12 24.1632 121.246C24.6191 122.373 24.8471 123.64 24.8471 125.048C24.8471 128.052 23.9218 130.331 22.0713 131.887C20.2208 133.429 17.4652 134.2 13.8044 134.2ZM12.3561 120.683H8.3333V129.694H12.3561C13.7641 129.694 14.9375 129.547 15.8761 129.252C16.8282 128.957 17.5523 128.474 18.0485 127.804C18.5446 127.133 18.7927 126.255 18.7927 125.169C18.7927 123.868 18.4105 122.809 17.6462 121.991C16.788 121.119 15.0246 120.683 12.3561 120.683Z" fill="black"/>
</svg>
